<svg width="125" height="21" viewBox="0 0 125 21" fill="none" xmlns="http://www.w3.org/2000/svg">
<path d="M10.5 0L12.8574 7.25532H20.4861L14.3143 11.7394L16.6717 18.9947L10.5 14.5106L4.32825 18.9947L6.68565 11.7394L0.513906 7.25532H8.1426L10.5 0Z" fill="#D19439"/>
<path d="M36.5 0L38.8574 7.25532H46.4861L40.3143 11.7394L42.6717 18.9947L36.5 14.5106L30.3283 18.9947L32.6857 11.7394L26.5139 7.25532H34.1426L36.5 0Z" fill="#D19439"/>
<path d="M62.5 0L64.8574 7.25532H72.4861L66.3143 11.7394L68.6717 18.9947L62.5 14.5106L56.3283 18.9947L58.6857 11.7394L52.5139 7.25532H60.1426L62.5 0Z" fill="#D19439"/>
<path d="M88.5 0L90.8574 7.25532H98.4861L92.3143 11.7394L94.6717 18.9947L88.5 14.5106L82.3283 18.9947L84.6857 11.7394L78.5139 7.25532H86.1426L88.5 0Z" fill="#D19439"/>
<path d="M114.5 0L116.857 7.25532H124.486L118.314 11.7394L120.672 18.9947L114.5 14.5106L108.328 18.9947L110.686 11.7394L104.514 7.25532H112.143L114.5 0Z" fill="#D19439"/>
</svg>
