<svg width="30" height="23" viewBox="0 0 30 23" fill="none" xmlns="http://www.w3.org/2000/svg">
<path d="M29.4507 8.25C29.4507 13.9433 26.7907 18.68 21.4707 22.46L16.9907 18.82C18.1574 18.2133 19.3474 17.2567 20.5607 15.95C21.7741 14.6433 22.5441 13.3833 22.8707 12.17C22.3107 12.31 21.7741 12.38 21.2607 12.38C19.7674 12.38 18.5074 11.8433 17.4807 10.77C16.4074 9.69667 15.8707 8.32 15.8707 6.64C15.8707 4.86667 16.5007 3.32667 17.7607 2.02C19.0207 0.760001 20.5374 0.130002 22.3107 0.130002C24.2707 0.130002 25.9507 0.853335 27.3507 2.3C28.7507 3.79333 29.4507 5.77667 29.4507 8.25ZM13.7007 8.25C13.7007 13.9433 11.0407 18.68 5.72074 22.46L1.24074 18.82C2.40741 18.26 3.59741 17.3033 4.81074 15.95C5.97741 14.6433 6.74741 13.3833 7.12074 12.17C6.56074 12.31 6.02407 12.38 5.51074 12.38C3.97074 12.38 2.68741 11.8433 1.66074 10.77C0.634074 9.69667 0.120741 8.32 0.120741 6.64C0.120741 4.86667 0.750741 3.32667 2.01074 2.02C3.27074 0.760001 4.76407 0.130002 6.49074 0.130002C8.45074 0.130002 10.1541 0.853335 11.6007 2.3C13.0007 3.79333 13.7007 5.77667 13.7007 8.25Z" fill="#222222"/>
</svg>
