<svg width="30" height="23" viewBox="0 0 30 23" fill="none" xmlns="http://www.w3.org/2000/svg">
<path d="M0.549258 14.75C0.549258 9.05667 3.20926 4.32 8.52926 0.539998L13.0093 4.18C11.8426 4.78666 10.6526 5.74333 9.43926 7.05C8.22592 8.35666 7.45592 9.61666 7.12926 10.83C7.68926 10.69 8.22593 10.62 8.73926 10.62C10.2326 10.62 11.4926 11.1567 12.5193 12.23C13.5926 13.3033 14.1293 14.68 14.1293 16.36C14.1293 18.1333 13.4993 19.6733 12.2393 20.98C10.9793 22.24 9.46259 22.87 7.68926 22.87C5.72926 22.87 4.04926 22.1467 2.64926 20.7C1.24926 19.2067 0.549258 17.2233 0.549258 14.75ZM16.2993 14.75C16.2993 9.05667 18.9593 4.32 24.2793 0.539998L28.7593 4.18C27.5926 4.74 26.4026 5.69666 25.1893 7.05C24.0226 8.35666 23.2526 9.61666 22.8793 10.83C23.4393 10.69 23.9759 10.62 24.4893 10.62C26.0293 10.62 27.3126 11.1567 28.3393 12.23C29.3659 13.3033 29.8793 14.68 29.8793 16.36C29.8793 18.1333 29.2493 19.6733 27.9893 20.98C26.7293 22.24 25.2359 22.87 23.5093 22.87C21.5493 22.87 19.8459 22.1467 18.3993 20.7C16.9993 19.2067 16.2993 17.2233 16.2993 14.75Z" fill="#222222"/>
</svg>
