<svg width="51" height="50" viewBox="0 0 51 50" fill="none" xmlns="http://www.w3.org/2000/svg">
<circle cx="25.5" cy="25" r="24" fill="#F5F5F5" stroke="url(#paint0_linear_3079_48579)" stroke-width="2"/>
<path fill-rule="evenodd" clip-rule="evenodd" d="M16.8177 14H33.3485C34.0957 14.0003 34.8123 14.3007 35.3406 14.8353C35.869 15.3699 36.1659 16.0949 36.1662 16.8509V27.4942C36.1659 28.2502 35.869 28.9752 35.3406 29.5098C34.8123 30.0444 34.0957 30.3448 33.3485 30.3451H27.9009V32.3065C28.537 32.4372 29.1089 32.7863 29.5198 33.2948C29.9306 33.8033 30.155 34.4398 30.155 35.0966V35.8568C30.154 36.0077 30.0942 36.1521 29.9888 36.2588C29.8833 36.3655 29.7406 36.4259 29.5915 36.427H20.5747C20.4256 36.4259 20.2829 36.3655 20.1774 36.2588C20.072 36.1521 20.0123 36.0077 20.0112 35.8568V35.0966C20.0112 34.4398 20.2356 33.8033 20.6464 33.2948C21.0573 32.7863 21.6292 32.4372 22.2654 32.3065V30.3451H16.8177C16.0705 30.3448 15.354 30.0444 14.8256 29.5098C14.2972 28.9752 14.0003 28.2502 14 27.4942V16.8509C14.0003 16.0949 14.2972 15.3699 14.8256 14.8353C15.354 14.3007 16.0705 14.0003 16.8177 14ZM34.5432 28.703C34.8601 28.3823 35.0385 27.9477 35.0391 27.4942V16.8509C35.0385 16.3974 34.8601 15.9628 34.5432 15.6421C34.2263 15.3215 33.7967 15.141 33.3485 15.1404H16.8177C16.3696 15.141 15.9399 15.3215 15.623 15.6421C15.3061 15.9628 15.1278 16.3974 15.1271 16.8509V27.4942C15.1278 27.9477 15.3061 28.3823 15.623 28.703C15.9399 29.0236 16.3696 29.2041 16.8177 29.2047H33.3485C33.7967 29.2041 34.2263 29.0236 34.5432 28.703ZM23.5803 27.3042C23.8916 27.3042 24.1439 27.0489 24.1439 26.734C24.1439 26.4191 23.8916 26.1638 23.5803 26.1638C23.2691 26.1638 23.0168 26.4191 23.0168 26.734C23.0168 27.0489 23.2691 27.3042 23.5803 27.3042ZM26.5859 27.3042C26.8972 27.3042 27.1495 27.0489 27.1495 26.734C27.1495 26.4191 26.8972 26.1638 26.5859 26.1638C26.2747 26.1638 26.0224 26.4191 26.0224 26.734C26.0224 27.0489 26.2747 27.3042 26.5859 27.3042Z" fill="url(#paint1_linear_3079_48579)"/>
<path d="M24.9241 23.9868C26.3594 23.9868 27.5231 22.8364 27.5231 21.4177C27.5231 19.9987 26.3594 18.8486 24.9241 18.8486C23.4887 18.8486 22.3252 19.9987 22.3252 21.4177C22.3269 22.8358 23.4895 23.9851 24.9241 23.9868ZM23.5764 20.9864C23.7357 20.8519 23.9749 20.8706 24.1107 21.028L24.5322 21.5157L25.7864 20.5072C25.8913 20.4221 26.0343 20.3991 26.1612 20.4468C26.2883 20.4942 26.3797 20.6055 26.401 20.738C26.4224 20.8706 26.3704 21.0042 26.2648 21.0886L24.7238 22.328C24.5642 22.4564 24.33 22.4354 24.1964 22.2807L23.5346 21.5147C23.3986 21.3573 23.4174 21.1208 23.5764 20.9864Z" fill="url(#paint2_linear_3079_48579)"/>
<defs>
<linearGradient id="paint0_linear_3079_48579" x1="25.5" y1="0" x2="25.4997" y2="50" gradientUnits="userSpaceOnUse">
<stop stop-color="#927628"/>
<stop offset="1" stop-color="#FFCE00"/>
</linearGradient>
<linearGradient id="paint1_linear_3079_48579" x1="25.0831" y1="14" x2="25.083" y2="36.427" gradientUnits="userSpaceOnUse">
<stop stop-color="#927628"/>
<stop offset="1" stop-color="#FFCE00"/>
</linearGradient>
<linearGradient id="paint2_linear_3079_48579" x1="24.9241" y1="18.8486" x2="24.9241" y2="23.9868" gradientUnits="userSpaceOnUse">
<stop stop-color="#927628"/>
<stop offset="1" stop-color="#FFCE00"/>
</linearGradient>
</defs>
</svg>
