<svg width="51" height="50" viewBox="0 0 51 50" fill="none" xmlns="http://www.w3.org/2000/svg">
<circle cx="25.5" cy="25" r="24" fill="#F5F5F5" stroke="url(#paint0_linear_3079_48615)" stroke-width="2"/>
<g clip-path="url(#clip0_3079_48615)">
<path fill-rule="evenodd" clip-rule="evenodd" d="M36 25C36 31.0657 31.0656 36 25 36C18.9344 36 14 31.0657 14 25C14 18.9344 18.9344 14 25 14C26.2327 13.9986 27.4567 14.2049 28.621 14.6103C28.7686 14.6608 28.8779 14.7866 28.9072 14.9397C28.9366 15.0929 28.8818 15.2502 28.7635 15.3517C28.6453 15.4534 28.4814 15.484 28.3346 15.4318C27.2625 15.0584 26.1352 14.8686 25 14.8701C19.4143 14.8701 14.8701 19.4143 14.8701 25C14.8701 30.5857 19.4143 35.13 25 35.13C30.5857 35.13 35.1299 30.5857 35.1299 25C35.1326 23.6605 34.8678 22.3338 34.3507 21.0979C34.289 20.9542 34.3094 20.7883 34.4036 20.6636C34.498 20.539 34.6522 20.4747 34.8073 20.4951C34.9622 20.5152 35.0945 20.6174 35.1535 20.7621C35.715 22.1044 36.0027 23.5451 36 25ZM28.6973 16.8292C28.8672 16.6592 29.1427 16.6592 29.3127 16.8292L31.0363 18.553L34.2978 15.4379C34.4099 15.3289 34.5718 15.2884 34.7219 15.3318C34.8721 15.3753 34.9874 15.4962 35.0241 15.6481C35.0605 15.8001 35.0127 15.9601 34.8986 16.0671L31.3298 19.4758C31.1589 19.6391 30.8889 19.6362 30.7216 19.469L28.6973 17.4446C28.5276 17.2746 28.5276 16.9991 28.6973 16.8292Z" fill="url(#paint1_linear_3079_48615)"/>
</g>
<path fill-rule="evenodd" clip-rule="evenodd" d="M28.2314 22.9705C28.2489 22.9803 28.2638 22.9945 28.2749 23.0116C28.4399 23.0951 28.5447 23.269 28.5449 23.4598V28.2412C28.5446 28.4738 28.3632 28.6623 28.1393 28.6626H21.9506C21.7267 28.6623 21.5452 28.4738 21.5449 28.2412V23.4598C21.5452 23.204 21.7315 22.9899 21.9764 22.9639L24.239 21.6785C24.2993 21.6442 24.3749 21.6672 24.4078 21.7298C24.4408 21.7924 24.4187 21.8709 24.3584 21.9051L22.4992 22.9614H27.6972L25.838 21.9051C25.7777 21.8709 25.7556 21.7924 25.7885 21.7298C25.8215 21.6672 25.8971 21.6442 25.9573 21.6785L28.2314 22.9705ZM23.4459 27.3706C23.5146 27.3706 23.5703 27.3127 23.5703 27.2414V26.6139C23.5703 26.5425 23.5146 26.4847 23.4459 26.4847H22.3799C22.3112 26.4847 22.2556 26.5425 22.2556 26.6139V27.2414C22.2556 27.3127 22.3112 27.3706 22.3799 27.3706H23.4459ZM24.05 27.223H24.8673C24.936 27.223 24.9916 27.1651 24.9916 27.0938C24.9916 27.0224 24.936 26.9646 24.8673 26.9646H24.05C23.9813 26.9646 23.9256 27.0224 23.9256 27.0938C23.9256 27.1651 23.9813 27.223 24.05 27.223ZM24.05 26.7431H25.6667C25.7355 26.7431 25.7911 26.6852 25.7911 26.6139C25.7911 26.5425 25.7355 26.4847 25.6667 26.4847H24.05C23.9813 26.4847 23.9256 26.5425 23.9256 26.6139C23.9256 26.6852 23.9813 26.7431 24.05 26.7431ZM25.92 24.8058V23.289C25.92 23.2645 25.9267 23.2405 25.9394 23.2198H24.1517C24.1636 23.24 24.1699 23.2632 24.1699 23.2868V24.8058L24.288 24.675C24.3115 24.6489 24.3443 24.6342 24.3787 24.6342C24.413 24.6342 24.4459 24.6489 24.4694 24.675L24.7119 24.9436L24.9544 24.675C24.9778 24.6489 25.0107 24.6342 25.0451 24.6342C25.0794 24.6342 25.1122 24.6489 25.1358 24.675L25.3782 24.9435L25.6205 24.675C25.644 24.6489 25.6768 24.6342 25.7112 24.6342C25.7456 24.6342 25.7784 24.6489 25.8019 24.675L25.92 24.8058ZM23.3218 26.7431H22.5045V27.1122H23.3218V26.7431Z" fill="url(#paint2_linear_3079_48615)"/>
<defs>
<linearGradient id="paint0_linear_3079_48615" x1="25.5" y1="0" x2="25.4997" y2="50" gradientUnits="userSpaceOnUse">
<stop stop-color="#927628"/>
<stop offset="1" stop-color="#FFCE00"/>
</linearGradient>
<linearGradient id="paint1_linear_3079_48615" x1="25" y1="14" x2="24.9999" y2="36" gradientUnits="userSpaceOnUse">
<stop stop-color="#927628"/>
<stop offset="1" stop-color="#FFCE00"/>
</linearGradient>
<linearGradient id="paint2_linear_3079_48615" x1="25.0449" y1="21.6626" x2="25.0449" y2="28.6626" gradientUnits="userSpaceOnUse">
<stop stop-color="#927628"/>
<stop offset="1" stop-color="#FFCE00"/>
</linearGradient>
<clipPath id="clip0_3079_48615">
<rect width="22" height="22" fill="white" transform="translate(14 14)"/>
</clipPath>
</defs>
</svg>
