<svg width="51" height="50" viewBox="0 0 51 50" fill="none" xmlns="http://www.w3.org/2000/svg">
<circle cx="25.5" cy="25" r="24" fill="#F5F5F5" stroke="url(#paint0_linear_3079_48602)" stroke-width="2"/>
<path fill-rule="evenodd" clip-rule="evenodd" d="M31.7311 15.8316C30.0442 14.5839 28.038 13.9186 25.9842 13.9253C20.4066 13.9253 15.8688 18.7579 15.8688 24.698C15.8662 26.1228 16.1309 27.5334 16.647 28.8477C16.7085 29.0005 16.6884 29.1769 16.5941 29.3096C16.4998 29.442 16.3459 29.5107 16.191 29.489C16.0363 29.4673 15.9042 29.3586 15.8453 29.2047C15.2846 27.7774 14.9974 26.2452 15 24.698C15 18.2478 19.9273 13.0001 25.9842 13.0001C28.2236 12.9926 30.4107 13.7211 32.2472 15.0863L33.1781 13.7407C33.2813 13.5915 33.4581 13.5223 33.6275 13.5649C33.797 13.6073 33.9262 13.7534 33.9557 13.9362L34.5429 17.544C34.563 17.6682 34.5346 17.796 34.4643 17.8974C34.394 17.9989 34.2878 18.0655 34.1705 18.0818L30.761 18.5532C30.7423 18.5557 30.7236 18.557 30.705 18.557C30.5411 18.557 30.3913 18.4589 30.3174 18.303C30.2437 18.1473 30.2582 17.9607 30.3554 17.82L31.7311 15.8316ZM18.3726 35.6823C18.2034 35.6397 18.0742 35.4936 18.0444 35.3108L17.4568 31.7032C17.4366 31.5788 17.465 31.451 17.5353 31.3495C17.6056 31.2481 17.7118 31.1815 17.8291 31.1652L21.2389 30.6938C21.4112 30.67 21.5807 30.7581 21.6689 30.9176C21.7572 31.0774 21.7477 31.2778 21.6444 31.427L20.2688 33.4154C21.9557 34.6631 23.9619 35.3284 26.0156 35.3216C31.5933 35.3216 36.131 30.4891 36.131 24.549C36.1337 23.1244 35.8692 21.7136 35.3529 20.3993C35.2913 20.2464 35.3117 20.0701 35.406 19.9374C35.5 19.805 35.654 19.7365 35.8089 19.7582C35.9635 19.7797 36.0956 19.8884 36.1545 20.0422C36.7152 21.4696 37.0027 23.0018 36.9998 24.549C36.9998 30.9992 32.0726 36.2469 26.0156 36.2469C23.7762 36.2541 21.5894 35.5259 19.7531 34.1607L18.8223 35.5062C18.719 35.6555 18.542 35.7246 18.3726 35.6823Z" fill="url(#paint1_linear_3079_48602)"/>
<path d="M26.53 28.1465C25.3834 28.1465 24.48 27.7932 23.82 27.0865L24.47 26.1865C25.0434 26.7998 25.7467 27.1065 26.58 27.1065C27.0267 27.1065 27.36 27.0165 27.58 26.8365C27.8067 26.6565 27.92 26.4432 27.92 26.1965C27.92 25.9432 27.7867 25.7432 27.52 25.5965C27.2534 25.4432 26.93 25.3232 26.55 25.2365C26.17 25.1498 25.7867 25.0465 25.4 24.9265C25.02 24.8065 24.6967 24.6032 24.43 24.3165C24.1634 24.0298 24.03 23.6598 24.03 23.2065C24.03 22.6465 24.2534 22.1832 24.7 21.8165C25.1534 21.4432 25.74 21.2565 26.46 21.2565C27.4867 21.2565 28.32 21.5665 28.96 22.1865L28.29 23.0565C27.7834 22.5498 27.14 22.2965 26.36 22.2965C26.0134 22.2965 25.7367 22.3732 25.53 22.5265C25.33 22.6732 25.23 22.8732 25.23 23.1265C25.23 23.2932 25.3 23.4332 25.44 23.5465C25.5867 23.6598 25.7734 23.7532 26 23.8265C26.2267 23.8932 26.4767 23.9598 26.75 24.0265C27.03 24.0932 27.3067 24.1765 27.58 24.2765C27.86 24.3698 28.1134 24.4865 28.34 24.6265C28.5667 24.7665 28.75 24.9598 28.89 25.2065C29.0367 25.4532 29.11 25.7465 29.11 26.0865C29.11 26.6865 28.8934 27.1798 28.46 27.5665C28.0267 27.9532 27.3834 28.1465 26.53 28.1465Z" fill="url(#paint2_linear_3079_48602)"/>
<defs>
<linearGradient id="paint0_linear_3079_48602" x1="25.5" y1="0" x2="25.4997" y2="50" gradientUnits="userSpaceOnUse">
<stop stop-color="#927628"/>
<stop offset="1" stop-color="#FFCE00"/>
</linearGradient>
<linearGradient id="paint1_linear_3079_48602" x1="25.9999" y1="13" x2="25.9998" y2="36.247" gradientUnits="userSpaceOnUse">
<stop stop-color="#927628"/>
<stop offset="1" stop-color="#FFCE00"/>
</linearGradient>
<linearGradient id="paint2_linear_3079_48602" x1="26.0348" y1="19.0265" x2="26.0347" y2="29.4125" gradientUnits="userSpaceOnUse">
<stop stop-color="#927628"/>
<stop offset="1" stop-color="#FFCE00"/>
</linearGradient>
</defs>
</svg>
